<svg width="38" height="38" viewBox="0 0 38 38" fill="none" xmlns="http://www.w3.org/2000/svg">
<path fill-rule="evenodd" clip-rule="evenodd" d="M24.139 24.0116C29.1683 18.6204 29.0557 10.1712 23.8013 4.91686C18.4319 -0.452571 9.7263 -0.452571 4.35687 4.91686C-1.01255 10.2863 -1.01255 18.9918 4.35687 24.3613C9.62198 29.6264 18.0948 29.7287 23.4846 24.6682C23.3327 24.9499 23.2658 25.2737 23.2981 25.5992L23.3252 25.8715C23.3755 26.3778 23.5996 26.8511 23.9593 27.2108L34.5828 37.8343L37.3097 35.1073L26.6863 24.4839C26.3265 24.1241 25.8533 23.9 25.347 23.8497L25.0747 23.8227C24.7474 23.7902 24.4219 23.858 24.139 24.0116ZM21.181 7.53718C25.1032 11.4594 25.1032 17.8187 21.181 21.741C17.2587 25.6632 10.8995 25.6632 6.97718 21.741C3.05492 17.8187 3.05492 11.4594 6.97718 7.53718C10.8995 3.61491 17.2587 3.61491 21.181 7.53718Z" fill="white"/>
</svg>
